
<svg width="342px" height="141px" viewBox="0 0 342 141" version="1.1" xmlns="http://www.w3.org/2000/svg" xmlns:xlink="http://www.w3.org/1999/xlink">
    <g id="Page-1" stroke="none" stroke-width="1" fill="none" fill-rule="evenodd">
        <path d="M58,0 C72.00007,0 83.66662,4.733286 93,14.2 C94.200006,6.333294 98.199966,2.4 105,2.4 C113.266708,2.4 117.4,6.39996 117.4,14.4 C117.4,15.73334 117.133336,18.39998 116.6,22.4 C115.799996,28.40003 115.4,32.466656 115.4,34.6 C115.4,37.000012 115.533332,38.799994 115.8,40 C116.066668,44.266688 116.2,46.666664 116.2,47.2 C116.2,50.666684 114.666682,53.566655 111.6,55.9 C108.533318,58.233345 104.600024,59.4 99.8,59.4 C92.066628,59.4 87.400008,55.600038 85.8,48 C84.199992,40.399962 81.900015,35.166681 78.9,32.3 C75.899985,29.433319 71.133366,28 64.6,28 C55.93329,28 49.233357,32.033293 44.5,40.1 C39.766643,48.166707 37.4,59.599926 37.4,74.4 C37.4,86.933396 39.699977,96.699965 44.3,103.7 C48.900023,110.700035 55.266626,114.2 63.4,114.2 C68.600026,114.2 72.899983,112.700015 76.3,109.7 C79.700017,106.699985 81.4,102.933356 81.4,98.4 C81.4,92.799972 79.06669,90 74.4,90 L73.2,90 C72.666664,90.133334 72.200002,90.2 71.8,90.2 C69.666656,90.466668 68.466668,90.6 68.2,90.6 C65.53332,90.6 63.266676,89.433345 61.4,87.1 C59.533324,84.766655 58.6,81.866684 58.6,78.4 C58.6,74.39998 59.93332,71.200012 62.6,68.8 C65.26668,66.399988 68.733312,65.2 73,65.2 C75.800014,65.2 80.033305,65.566663 85.7,66.3 C91.366695,67.033337 95.666652,67.4 98.6,67.4 C103.000022,67.4 107.86664,67.06667 113.2,66.4 C117.466688,65.866664 120.399992,65.6 122,65.6 C126.266688,65.6 129.699987,66.899987 132.3,69.5 C134.900013,72.100013 136.2,75.599978 136.2,80 C136.2,83.866686 135.266676,87.099987 133.4,89.7 C131.533324,92.300013 129.200014,93.6 126.4,93.6 L121.6,93.2 C117.999982,93.2 116.2,96.19997 116.2,102.2 C116.2,104.733346 116.266666,107.399986 116.4,110.2 L116.8,118.8 C116.933334,121.733348 117,124.53332 117,127.2 C117,136.133378 112.066716,140.6 102.2,140.6 C92.86662,140.6 88.2,137.333366 88.2,130.8 L88.2,129.6 C78.999954,136.93337 68.533392,140.6 56.8,140.6 C46.533282,140.6 36.866712,137.900027 27.8,132.5 C18.733288,127.099973 12.133354,120.06671 8,111.4 C2.66664,100.333278 0,87.46674 0,72.8 C0,50.399888 5.199948,32.666732 15.6,19.6 C26.000052,6.533268 40.133244,0 58,0 Z M261.2,16.6 L274.6,102.6 L287.2,36.6 C287.600002,35.133326 287.8,33.866672 287.8,32.8 C287.8,30.399988 286.666678,29.2 284.4,29.2 C283.999998,29.2 283.13334,29.333332 281.8,29.6 L280.6,29.6 C280.066664,29.733334 279.666668,29.8 279.4,29.8 C274.333308,29.8 271.8,25.80004 271.8,17.8 C271.8,7.79995 276.266622,2.8 285.2,2.8 C287.466678,2.8 290.666646,3.066664 294.8,3.6 C301.066698,4.400004 305.266656,4.8 307.4,4.8 C307.666668,4.8 312.999948,4.200006 323.4,3 C325.133342,2.866666 326.599994,2.8 327.8,2.8 C331.80002,2.8 335.099987,4.166653 337.7,6.9 C340.300013,9.633347 341.6,13.066646 341.6,17.2 C341.6,20.800018 340.633343,23.93332 338.7,26.6 C336.766657,29.26668 334.46668,30.6 331.8,30.6 C330.333326,30.6 328.966673,30.366669 327.7,29.9 C326.433327,29.433331 325.333338,29.2 324.4,29.2 C322.133322,29.2 320.466672,30.86665 319.4,34.2 C319.4,34.333334 318.800006,36.933308 317.6,42 L299.4,122.8 C298.06666,128.266694 297.06667,131.599994 296.4,132.8 C294.933326,135.600014 292.20002,137 288.2,137 C286.733326,137 284.600014,136.866668 281.8,136.6 C280.46666,136.466666 278.13335,136.4 274.8,136.4 C271.999986,136.4 269.533344,136.466666 267.4,136.6 L261,137 L260,137 C256.533316,137 254.13334,135.800012 252.8,133.4 C251.46666,130.999988 250.13334,125.533376 248.8,117 L238,47.2 L227,117 C225.66666,125.533376 224.33334,130.999988 223,133.4 C221.66666,135.800012 219.266684,137 215.8,137 C214.599994,137 212.133352,136.866668 208.4,136.6 C206.533324,136.466666 204.133348,136.4 201.2,136.4 C199.733326,136.4 197.500015,136.499999 194.5,136.7 C191.499985,136.900001 189.266674,137 187.8,137 C183.79998,137 181.066674,135.600014 179.6,132.8 C178.93333,131.733328 177.93334,128.400028 176.6,122.8 L174.2,112.6 L158.2,42 C157.666664,39.466654 157.133336,36.86668 156.6,34.2 C155.399994,30.86665 153.733344,29.2 151.6,29.2 C150.533328,29.2 149.400006,29.399998 148.2,29.8 C146.599992,30.333336 145.266672,30.6 144.2,30.6 C141.53332,30.6 139.20001,29.26668 137.2,26.6 C135.19999,23.93332 134.2,20.733352 134.2,17 C134.2,12.866646 135.53332,9.46668 138.2,6.8 C140.86668,4.13332 144.19998,2.8 148.2,2.8 C150.466678,2.8 153.833311,3.13333 158.3,3.8 C162.766689,4.46667 166.199988,4.8 168.6,4.8 C170.733344,4.8 174.933302,4.400004 181.2,3.6 C185.333354,3.066664 188.533322,2.8 190.8,2.8 C199.733378,2.8 204.2,7.533286 204.2,17 C204.2,25.533376 201.666692,29.8 196.6,29.8 C196.333332,29.8 195.933336,29.733334 195.4,29.6 L194,29.6 C192.66666,29.333332 191.866668,29.2 191.6,29.2 C189.333322,29.2 188.2,30.466654 188.2,33 C188.2,34.066672 188.333332,35.26666 188.6,36.6 L201.4,102.6 L214.6,16.6 C215.533338,10.866638 216.533328,7.133342 217.6,5.4 C218.666672,3.666658 220.53332,2.8 223.2,2.8 C224.800008,2.8 227.26665,2.966665 230.6,3.3 C233.93335,3.633335 236.399992,3.8 238,3.8 C239.600008,3.8 242.033317,3.633335 245.3,3.3 C248.566683,2.966665 250.999992,2.8 252.6,2.8 C255.93335,2.8 258.199994,4.333318 259.4,7.4 C259.800002,8.466672 260.399996,11.533308 261.2,16.6 Z" id="GW" fill="#00D5ED"></path>
    </g>
</svg>